<svg width="1200" height="600" viewBox="0 0 1200 600" fill="none" xmlns="http://www.w3.org/2000/svg">
<rect width="1200" height="600" fill="white"/>
<path d="M543.027 303V263H559.551C562.546 263 565.13 263.586 567.305 264.758C569.492 265.917 571.178 267.538 572.363 269.621C573.548 271.691 574.141 274.1 574.141 276.848C574.141 279.608 573.535 282.023 572.324 284.094C571.126 286.151 569.414 287.746 567.188 288.879C564.961 290.012 562.318 290.578 559.258 290.578H549.063V282.961H557.461C558.919 282.961 560.137 282.707 561.113 282.199C562.103 281.691 562.852 280.982 563.359 280.07C563.867 279.146 564.121 278.072 564.121 276.848C564.121 275.611 563.867 274.543 563.359 273.645C562.852 272.733 562.103 272.03 561.113 271.535C560.124 271.04 558.906 270.793 557.461 270.793H552.695V303H543.027ZM578.906 303V273H588.184V278.469H588.496C589.043 276.49 589.935 275.018 591.172 274.055C592.409 273.078 593.848 272.59 595.488 272.59C595.931 272.59 596.387 272.622 596.855 272.687C597.324 272.74 597.76 272.824 598.164 272.941V281.242C597.708 281.086 597.109 280.962 596.367 280.871C595.638 280.78 594.987 280.734 594.414 280.734C593.281 280.734 592.259 280.988 591.348 281.496C590.449 281.991 589.74 282.687 589.219 283.586C588.711 284.471 588.457 285.513 588.457 286.711V303H578.906ZM614.521 303.566C611.383 303.566 608.675 302.948 606.396 301.711C604.131 300.461 602.386 298.684 601.162 296.379C599.951 294.061 599.346 291.307 599.346 288.117C599.346 285.018 599.958 282.31 601.182 279.992C602.406 277.661 604.131 275.852 606.357 274.562C608.584 273.26 611.208 272.609 614.229 272.609C616.364 272.609 618.317 272.941 620.088 273.605C621.859 274.27 623.389 275.253 624.678 276.555C625.967 277.857 626.969 279.465 627.686 281.379C628.402 283.28 628.76 285.461 628.76 287.922V290.305H602.686V284.758H619.873C619.86 283.742 619.619 282.837 619.15 282.043C618.682 281.249 618.037 280.63 617.217 280.187C616.41 279.732 615.479 279.504 614.424 279.504C613.356 279.504 612.399 279.745 611.553 280.227C610.706 280.695 610.036 281.34 609.541 282.16C609.046 282.967 608.786 283.885 608.76 284.914V290.559C608.76 291.783 609.001 292.857 609.482 293.781C609.964 294.693 610.648 295.402 611.533 295.91C612.419 296.418 613.473 296.672 614.697 296.672C615.544 296.672 616.312 296.555 617.002 296.32C617.692 296.086 618.285 295.741 618.779 295.285C619.274 294.829 619.645 294.27 619.893 293.605L628.662 293.859C628.298 295.826 627.497 297.538 626.26 298.996C625.036 300.441 623.428 301.568 621.436 302.375C619.443 303.169 617.139 303.566 614.521 303.566ZM641.333 273L646.274 282.883L651.392 273H661.021L652.642 288L661.333 303H651.782L646.274 293.039L640.903 303H631.216L639.927 288L631.646 273H641.333ZM682.314 273V280.031H663.389V273H682.314ZM667.354 265.812H676.904V293.566C676.904 294.152 676.995 294.628 677.178 294.992C677.373 295.344 677.653 295.598 678.018 295.754C678.382 295.897 678.818 295.969 679.326 295.969C679.691 295.969 680.075 295.936 680.479 295.871C680.895 295.793 681.208 295.728 681.416 295.676L682.861 302.57C682.406 302.701 681.761 302.863 680.928 303.059C680.107 303.254 679.124 303.378 677.979 303.43C675.739 303.534 673.818 303.273 672.217 302.648C670.628 302.01 669.411 301.021 668.564 299.68C667.731 298.339 667.327 296.652 667.354 294.621V265.812Z" fill="#203540"/>
<path d="M373.477 345.309C372.433 345.309 371.503 345.128 370.686 344.766C369.869 344.396 369.223 343.853 368.747 343.136C368.278 342.411 368.044 341.509 368.044 340.43C368.044 339.521 368.211 338.757 368.545 338.139C368.879 337.521 369.333 337.024 369.908 336.648C370.484 336.271 371.137 335.987 371.869 335.795C372.607 335.604 373.381 335.469 374.191 335.391C375.143 335.291 375.91 335.199 376.492 335.114C377.075 335.021 377.497 334.886 377.76 334.709C378.023 334.531 378.154 334.268 378.154 333.92V333.857C378.154 333.182 377.941 332.66 377.515 332.29C377.096 331.921 376.499 331.737 375.725 331.737C374.908 331.737 374.259 331.918 373.776 332.28C373.293 332.635 372.973 333.082 372.817 333.622L368.619 333.281C368.832 332.287 369.251 331.428 369.876 330.703C370.501 329.972 371.308 329.411 372.295 329.02C373.289 328.622 374.44 328.423 375.746 328.423C376.656 328.423 377.526 328.53 378.357 328.743C379.195 328.956 379.937 329.286 380.583 329.734C381.237 330.181 381.751 330.756 382.128 331.46C382.504 332.156 382.692 332.99 382.692 333.963V345H378.388V342.731H378.261C377.998 343.242 377.646 343.693 377.206 344.084C376.766 344.467 376.237 344.769 375.619 344.989C375.001 345.202 374.287 345.309 373.477 345.309ZM374.777 342.177C375.445 342.177 376.034 342.045 376.545 341.783C377.057 341.513 377.458 341.151 377.749 340.696C378.04 340.241 378.186 339.727 378.186 339.151V337.415C378.044 337.507 377.849 337.592 377.6 337.67C377.359 337.741 377.085 337.809 376.78 337.873C376.474 337.93 376.169 337.983 375.864 338.033C375.558 338.075 375.281 338.114 375.033 338.15C374.5 338.228 374.035 338.352 373.637 338.523C373.239 338.693 372.93 338.924 372.71 339.215C372.49 339.499 372.38 339.854 372.38 340.281C372.38 340.898 372.604 341.371 373.051 341.697C373.506 342.017 374.081 342.177 374.777 342.177ZM393.242 345V323.182H401.978C403.583 323.182 404.922 323.42 405.994 323.896C407.067 324.371 407.873 325.032 408.412 325.877C408.952 326.715 409.222 327.681 409.222 328.775C409.222 329.627 409.052 330.376 408.711 331.023C408.37 331.662 407.901 332.187 407.305 332.599C406.715 333.004 406.04 333.292 405.28 333.462V333.675C406.111 333.711 406.889 333.945 407.613 334.379C408.345 334.812 408.938 335.419 409.393 336.2C409.847 336.974 410.074 337.898 410.074 338.97C410.074 340.128 409.787 341.161 409.211 342.07C408.643 342.972 407.802 343.686 406.687 344.212C405.572 344.737 404.197 345 402.564 345H393.242ZM397.855 341.229H401.616C402.901 341.229 403.839 340.984 404.428 340.494C405.018 339.996 405.312 339.336 405.312 338.512C405.312 337.908 405.167 337.376 404.876 336.914C404.584 336.452 404.169 336.09 403.629 335.827C403.096 335.565 402.461 335.433 401.722 335.433H397.855V341.229ZM397.855 332.312H401.275C401.907 332.312 402.468 332.202 402.958 331.982C403.455 331.754 403.846 331.435 404.13 331.023C404.421 330.611 404.567 330.117 404.567 329.542C404.567 328.754 404.286 328.118 403.725 327.635C403.171 327.152 402.383 326.911 401.36 326.911H397.855V332.312ZM417.657 345.309C416.613 345.309 415.683 345.128 414.866 344.766C414.049 344.396 413.403 343.853 412.927 343.136C412.458 342.411 412.224 341.509 412.224 340.43C412.224 339.521 412.391 338.757 412.724 338.139C413.058 337.521 413.513 337.024 414.088 336.648C414.663 336.271 415.317 335.987 416.048 335.795C416.787 335.604 417.561 335.469 418.371 335.391C419.322 335.291 420.089 335.199 420.672 335.114C421.254 335.021 421.677 334.886 421.94 334.709C422.202 334.531 422.334 334.268 422.334 333.92V333.857C422.334 333.182 422.121 332.66 421.695 332.29C421.276 331.921 420.679 331.737 419.905 331.737C419.088 331.737 418.438 331.918 417.955 332.28C417.472 332.635 417.153 333.082 416.996 333.622L412.799 333.281C413.012 332.287 413.431 331.428 414.056 330.703C414.681 329.972 415.487 329.411 416.474 329.02C417.469 328.622 418.619 328.423 419.926 328.423C420.835 328.423 421.705 328.53 422.536 328.743C423.374 328.956 424.116 329.286 424.763 329.734C425.416 330.181 425.931 330.756 426.308 331.46C426.684 332.156 426.872 332.99 426.872 333.963V345H422.568V342.731H422.44C422.178 343.242 421.826 343.693 421.386 344.084C420.945 344.467 420.416 344.769 419.798 344.989C419.18 345.202 418.467 345.309 417.657 345.309ZM418.957 342.177C419.624 342.177 420.214 342.045 420.725 341.783C421.237 341.513 421.638 341.151 421.929 340.696C422.22 340.241 422.366 339.727 422.366 339.151V337.415C422.224 337.507 422.028 337.592 421.78 337.67C421.538 337.741 421.265 337.809 420.96 337.873C420.654 337.93 420.349 337.983 420.043 338.033C419.738 338.075 419.461 338.114 419.212 338.15C418.68 338.228 418.214 338.352 417.817 338.523C417.419 338.693 417.11 338.924 416.89 339.215C416.67 339.499 416.56 339.854 416.56 340.281C416.56 340.898 416.783 341.371 417.231 341.697C417.685 342.017 418.261 342.177 418.957 342.177ZM437.787 345.32C436.11 345.32 434.669 344.964 433.461 344.254C432.261 343.537 431.338 342.543 430.691 341.271C430.052 340 429.733 338.537 429.733 336.882C429.733 335.206 430.056 333.736 430.702 332.472C431.355 331.2 432.282 330.21 433.483 329.499C434.683 328.782 436.11 328.423 437.765 328.423C439.193 328.423 440.443 328.683 441.515 329.201C442.588 329.719 443.436 330.447 444.061 331.385C444.686 332.322 445.031 333.423 445.095 334.688H440.812C440.691 333.871 440.372 333.214 439.853 332.717C439.342 332.212 438.671 331.96 437.84 331.96C437.137 331.96 436.522 332.152 435.997 332.536C435.478 332.912 435.074 333.462 434.782 334.187C434.491 334.911 434.346 335.788 434.346 336.818C434.346 337.862 434.488 338.75 434.772 339.482C435.063 340.213 435.471 340.771 435.997 341.154C436.522 341.538 437.137 341.729 437.84 341.729C438.358 341.729 438.824 341.623 439.235 341.41C439.654 341.197 439.999 340.888 440.269 340.483C440.546 340.071 440.727 339.577 440.812 339.002H445.095C445.024 340.252 444.683 341.353 444.072 342.305C443.468 343.249 442.634 343.988 441.569 344.521C440.503 345.053 439.243 345.32 437.787 345.32ZM452.113 340.291L452.123 334.847H452.784L458.025 328.636H463.235L456.193 336.861H455.117L452.113 340.291ZM448.001 345V323.182H452.539V345H448.001ZM458.228 345L453.412 337.873L456.438 334.666L463.544 345H458.228ZM472.245 345.32C470.562 345.32 469.113 344.979 467.898 344.297C466.691 343.608 465.761 342.635 465.107 341.378C464.454 340.114 464.127 338.619 464.127 336.893C464.127 335.21 464.454 333.732 465.107 332.461C465.761 331.19 466.68 330.199 467.866 329.489C469.06 328.778 470.459 328.423 472.064 328.423C473.143 328.423 474.148 328.597 475.079 328.945C476.016 329.286 476.833 329.801 477.529 330.49C478.232 331.179 478.779 332.045 479.17 333.089C479.56 334.126 479.756 335.341 479.756 336.733V337.979H465.938V335.167H475.484C475.484 334.513 475.342 333.935 475.058 333.43C474.773 332.926 474.379 332.532 473.875 332.248C473.378 331.957 472.799 331.811 472.138 331.811C471.45 331.811 470.839 331.971 470.306 332.29C469.781 332.603 469.369 333.026 469.07 333.558C468.772 334.084 468.619 334.67 468.612 335.316V337.99C468.612 338.8 468.761 339.499 469.06 340.089C469.365 340.678 469.795 341.133 470.349 341.452C470.903 341.772 471.56 341.932 472.32 341.932C472.824 341.932 473.286 341.861 473.705 341.719C474.124 341.577 474.482 341.364 474.781 341.08C475.079 340.795 475.306 340.447 475.462 340.036L479.66 340.312C479.447 341.321 479.01 342.202 478.349 342.955C477.696 343.7 476.851 344.283 475.814 344.702C474.784 345.114 473.594 345.32 472.245 345.32ZM487.256 335.54V345H482.717V328.636H487.043V331.523H487.234C487.597 330.572 488.204 329.819 489.056 329.265C489.908 328.704 490.942 328.423 492.156 328.423C493.293 328.423 494.283 328.672 495.129 329.169C495.974 329.666 496.631 330.376 497.099 331.3C497.568 332.216 497.803 333.31 497.803 334.581V345H493.264V335.391C493.271 334.389 493.016 333.608 492.497 333.047C491.979 332.479 491.265 332.195 490.356 332.195C489.745 332.195 489.205 332.326 488.737 332.589C488.275 332.852 487.913 333.235 487.65 333.739C487.394 334.237 487.263 334.837 487.256 335.54ZM507.409 345.266C506.166 345.266 505.041 344.947 504.032 344.308C503.031 343.661 502.235 342.713 501.646 341.463C501.063 340.206 500.772 338.665 500.772 336.839C500.772 334.964 501.074 333.406 501.678 332.163C502.281 330.913 503.084 329.979 504.085 329.361C505.094 328.736 506.198 328.423 507.399 328.423C508.315 328.423 509.078 328.58 509.689 328.892C510.307 329.197 510.804 329.581 511.181 330.043C511.564 330.497 511.855 330.945 512.054 331.385H512.193V323.182H516.72V345H512.246V342.379H512.054C511.841 342.834 511.539 343.285 511.149 343.732C510.765 344.173 510.264 344.538 509.646 344.83C509.036 345.121 508.29 345.266 507.409 345.266ZM508.847 341.655C509.579 341.655 510.197 341.456 510.701 341.058C511.213 340.653 511.603 340.089 511.873 339.364C512.15 338.64 512.289 337.791 512.289 336.818C512.289 335.845 512.154 335 511.884 334.283C511.614 333.565 511.223 333.011 510.712 332.621C510.2 332.23 509.579 332.035 508.847 332.035C508.102 332.035 507.473 332.237 506.962 332.642C506.45 333.047 506.063 333.608 505.801 334.325C505.538 335.043 505.406 335.874 505.406 336.818C505.406 337.77 505.538 338.612 505.801 339.343C506.07 340.067 506.458 340.636 506.962 341.048C507.473 341.452 508.102 341.655 508.847 341.655ZM527.48 345V323.182H541.926V326.985H532.093V332.184H540.968V335.987H532.093V345H527.48ZM544.68 345V328.636H549.08V331.491H549.251C549.549 330.476 550.05 329.709 550.753 329.19C551.456 328.665 552.265 328.402 553.182 328.402C553.409 328.402 553.654 328.416 553.917 328.445C554.18 328.473 554.41 328.512 554.609 328.562V332.589C554.396 332.525 554.101 332.468 553.725 332.418C553.349 332.369 553.004 332.344 552.692 332.344C552.024 332.344 551.427 332.489 550.902 332.781C550.383 333.065 549.971 333.462 549.666 333.974C549.368 334.485 549.219 335.075 549.219 335.742V345H544.68ZM561.153 345.309C560.109 345.309 559.179 345.128 558.362 344.766C557.545 344.396 556.899 343.853 556.423 343.136C555.954 342.411 555.72 341.509 555.72 340.43C555.72 339.521 555.887 338.757 556.221 338.139C556.554 337.521 557.009 337.024 557.584 336.648C558.159 336.271 558.813 335.987 559.544 335.795C560.283 335.604 561.057 335.469 561.867 335.391C562.819 335.291 563.586 335.199 564.168 335.114C564.75 335.021 565.173 334.886 565.436 334.709C565.699 334.531 565.83 334.268 565.83 333.92V333.857C565.83 333.182 565.617 332.66 565.191 332.29C564.772 331.921 564.175 331.737 563.401 331.737C562.584 331.737 561.934 331.918 561.451 332.28C560.968 332.635 560.649 333.082 560.493 333.622L556.295 333.281C556.508 332.287 556.927 331.428 557.552 330.703C558.177 329.972 558.983 329.411 559.971 329.02C560.965 328.622 562.115 328.423 563.422 328.423C564.331 328.423 565.201 328.53 566.032 328.743C566.87 328.956 567.613 329.286 568.259 329.734C568.912 330.181 569.427 330.756 569.804 331.46C570.18 332.156 570.368 332.99 570.368 333.963V345H566.064V342.731H565.936C565.674 343.242 565.322 343.693 564.882 344.084C564.441 344.467 563.912 344.769 563.294 344.989C562.676 345.202 561.963 345.309 561.153 345.309ZM562.453 342.177C563.12 342.177 563.71 342.045 564.221 341.783C564.733 341.513 565.134 341.151 565.425 340.696C565.716 340.241 565.862 339.727 565.862 339.151V337.415C565.72 337.507 565.525 337.592 565.276 337.67C565.034 337.741 564.761 337.809 564.456 337.873C564.15 337.93 563.845 337.983 563.539 338.033C563.234 338.075 562.957 338.114 562.708 338.15C562.176 338.228 561.711 338.352 561.313 338.523C560.915 338.693 560.606 338.924 560.386 339.215C560.166 339.499 560.056 339.854 560.056 340.281C560.056 340.898 560.279 341.371 560.727 341.697C561.181 342.017 561.757 342.177 562.453 342.177ZM573.889 345V328.636H578.214V331.523H578.406C578.747 330.565 579.315 329.808 580.111 329.254C580.906 328.7 581.858 328.423 582.966 328.423C584.088 328.423 585.043 328.704 585.832 329.265C586.62 329.819 587.146 330.572 587.408 331.523H587.579C587.913 330.586 588.516 329.837 589.39 329.276C590.271 328.707 591.311 328.423 592.511 328.423C594.038 328.423 595.278 328.91 596.229 329.883C597.188 330.849 597.668 332.219 597.668 333.995V345H593.14V334.89C593.14 333.981 592.898 333.299 592.415 332.844C591.933 332.39 591.329 332.163 590.604 332.163C589.781 332.163 589.138 332.425 588.676 332.951C588.214 333.469 587.984 334.155 587.984 335.007V345H583.584V334.794C583.584 333.991 583.353 333.352 582.891 332.876C582.437 332.401 581.837 332.163 581.091 332.163C580.587 332.163 580.132 332.29 579.727 332.546C579.33 332.795 579.013 333.146 578.779 333.601C578.545 334.048 578.428 334.574 578.428 335.178V345H573.889ZM608.71 345.32C607.027 345.32 605.578 344.979 604.363 344.297C603.156 343.608 602.225 342.635 601.572 341.378C600.919 340.114 600.592 338.619 600.592 336.893C600.592 335.21 600.919 333.732 601.572 332.461C602.225 331.19 603.145 330.199 604.331 329.489C605.525 328.778 606.924 328.423 608.529 328.423C609.608 328.423 610.613 328.597 611.544 328.945C612.481 329.286 613.298 329.801 613.994 330.49C614.697 331.179 615.244 332.045 615.635 333.089C616.025 334.126 616.221 335.341 616.221 336.733V337.979H602.403V335.167H611.949C611.949 334.513 611.806 333.935 611.522 333.43C611.238 332.926 610.844 332.532 610.34 332.248C609.843 331.957 609.264 331.811 608.603 331.811C607.914 331.811 607.304 331.971 606.771 332.29C606.245 332.603 605.833 333.026 605.535 333.558C605.237 334.084 605.084 334.67 605.077 335.316V337.99C605.077 338.8 605.226 339.499 605.525 340.089C605.83 340.678 606.26 341.133 606.814 341.452C607.368 341.772 608.025 341.932 608.784 341.932C609.289 341.932 609.75 341.861 610.169 341.719C610.588 341.577 610.947 341.364 611.245 341.08C611.544 340.795 611.771 340.447 611.927 340.036L616.125 340.312C615.912 341.321 615.475 342.202 614.814 342.955C614.161 343.7 613.316 344.283 612.279 344.702C611.249 345.114 610.059 345.32 608.71 345.32ZM622.293 345L617.84 328.636H622.431L624.967 339.631H625.116L627.758 328.636H632.265L634.949 339.567H635.088L637.581 328.636H642.162L637.719 345H632.914L630.102 334.709H629.9L627.087 345H622.293ZM651.566 345.32C649.911 345.32 648.48 344.968 647.273 344.265C646.072 343.555 645.145 342.567 644.492 341.303C643.839 340.032 643.512 338.558 643.512 336.882C643.512 335.192 643.839 333.714 644.492 332.45C645.145 331.179 646.072 330.192 647.273 329.489C648.48 328.778 649.911 328.423 651.566 328.423C653.221 328.423 654.648 328.778 655.849 329.489C657.056 330.192 657.986 331.179 658.64 332.45C659.293 333.714 659.62 335.192 659.62 336.882C659.62 338.558 659.293 340.032 658.64 341.303C657.986 342.567 657.056 343.555 655.849 344.265C654.648 344.968 653.221 345.32 651.566 345.32ZM651.587 341.804C652.34 341.804 652.969 341.591 653.473 341.165C653.977 340.732 654.357 340.142 654.613 339.396C654.876 338.651 655.007 337.802 655.007 336.85C655.007 335.898 654.876 335.05 654.613 334.304C654.357 333.558 653.977 332.969 653.473 332.536C652.969 332.102 652.34 331.886 651.587 331.886C650.827 331.886 650.188 332.102 649.67 332.536C649.158 332.969 648.771 333.558 648.508 334.304C648.253 335.05 648.125 335.898 648.125 336.85C648.125 337.802 648.253 338.651 648.508 339.396C648.771 340.142 649.158 340.732 649.67 341.165C650.188 341.591 650.827 341.804 651.587 341.804ZM662.571 345V328.636H666.971V331.491H667.141C667.439 330.476 667.94 329.709 668.643 329.19C669.346 328.665 670.156 328.402 671.072 328.402C671.3 328.402 671.545 328.416 671.807 328.445C672.07 328.473 672.301 328.512 672.5 328.562V332.589C672.287 332.525 671.992 332.468 671.616 332.418C671.239 332.369 670.895 332.344 670.582 332.344C669.915 332.344 669.318 332.489 668.792 332.781C668.274 333.065 667.862 333.462 667.557 333.974C667.258 334.485 667.109 335.075 667.109 335.742V345H662.571ZM678.958 340.291L678.969 334.847H679.63L684.871 328.636H690.081L683.039 336.861H681.963L678.958 340.291ZM674.846 345V323.182H679.385V345H674.846ZM685.074 345L680.258 337.873L683.284 334.666L690.39 345H685.074ZM708.05 328.636V332.045H697.951V328.636H708.05ZM700.263 345V327.454C700.263 326.268 700.493 325.284 700.955 324.503C701.424 323.722 702.063 323.136 702.873 322.745C703.682 322.354 704.602 322.159 705.632 322.159C706.328 322.159 706.964 322.212 707.539 322.319C708.121 322.425 708.555 322.521 708.839 322.607L708.029 326.016C707.851 325.959 707.631 325.906 707.368 325.856C707.113 325.806 706.85 325.781 706.58 325.781C705.912 325.781 705.447 325.938 705.184 326.25C704.922 326.555 704.79 326.985 704.79 327.539V345H700.263ZM717.63 345.32C715.975 345.32 714.544 344.968 713.337 344.265C712.137 343.555 711.21 342.567 710.556 341.303C709.903 340.032 709.576 338.558 709.576 336.882C709.576 335.192 709.903 333.714 710.556 332.45C711.21 331.179 712.137 330.192 713.337 329.489C714.544 328.778 715.975 328.423 717.63 328.423C719.285 328.423 720.713 328.778 721.913 329.489C723.12 330.192 724.051 331.179 724.704 332.45C725.358 333.714 725.684 335.192 725.684 336.882C725.684 338.558 725.358 340.032 724.704 341.303C724.051 342.567 723.12 343.555 721.913 344.265C720.713 344.968 719.285 345.32 717.63 345.32ZM717.652 341.804C718.404 341.804 719.033 341.591 719.537 341.165C720.042 340.732 720.422 340.142 720.677 339.396C720.94 338.651 721.071 337.802 721.071 336.85C721.071 335.898 720.94 335.05 720.677 334.304C720.422 333.558 720.042 332.969 719.537 332.536C719.033 332.102 718.404 331.886 717.652 331.886C716.892 331.886 716.252 332.102 715.734 332.536C715.223 332.969 714.836 333.558 714.573 334.304C714.317 335.05 714.189 335.898 714.189 336.85C714.189 337.802 714.317 338.651 714.573 339.396C714.836 340.142 715.223 340.732 715.734 341.165C716.252 341.591 716.892 341.804 717.652 341.804ZM728.635 345V328.636H733.035V331.491H733.206C733.504 330.476 734.005 329.709 734.708 329.19C735.411 328.665 736.221 328.402 737.137 328.402C737.364 328.402 737.609 328.416 737.872 328.445C738.135 328.473 738.365 328.512 738.564 328.562V332.589C738.351 332.525 738.056 332.468 737.68 332.418C737.304 332.369 736.959 332.344 736.647 332.344C735.979 332.344 735.382 332.489 734.857 332.781C734.338 333.065 733.926 333.462 733.621 333.974C733.323 334.485 733.174 335.075 733.174 335.742V345H728.635ZM766.189 323.182V345H762.204L752.712 331.268H752.552V345H747.939V323.182H751.988L761.405 336.903H761.597V323.182H766.189ZM777.308 345.32C775.653 345.32 774.222 344.968 773.015 344.265C771.814 343.555 770.888 342.567 770.234 341.303C769.581 340.032 769.254 338.558 769.254 336.882C769.254 335.192 769.581 333.714 770.234 332.45C770.888 331.179 771.814 330.192 773.015 329.489C774.222 328.778 775.653 328.423 777.308 328.423C778.963 328.423 780.39 328.778 781.591 329.489C782.798 330.192 783.729 331.179 784.382 332.45C785.035 333.714 785.362 335.192 785.362 336.882C785.362 338.558 785.035 340.032 784.382 341.303C783.729 342.567 782.798 343.555 781.591 344.265C780.39 344.968 778.963 345.32 777.308 345.32ZM777.329 341.804C778.082 341.804 778.711 341.591 779.215 341.165C779.719 340.732 780.099 340.142 780.355 339.396C780.618 338.651 780.749 337.802 780.749 336.85C780.749 335.898 780.618 335.05 780.355 334.304C780.099 333.558 779.719 332.969 779.215 332.536C778.711 332.102 778.082 331.886 777.329 331.886C776.569 331.886 775.93 332.102 775.412 332.536C774.9 332.969 774.513 333.558 774.251 334.304C773.995 335.05 773.867 335.898 773.867 336.85C773.867 337.802 773.995 338.651 774.251 339.396C774.513 340.142 774.9 340.732 775.412 341.165C775.93 341.591 776.569 341.804 777.329 341.804ZM794.343 345.266C793.1 345.266 791.974 344.947 790.966 344.308C789.964 343.661 789.169 342.713 788.579 341.463C787.997 340.206 787.706 338.665 787.706 336.839C787.706 334.964 788.008 333.406 788.611 332.163C789.215 330.913 790.018 329.979 791.019 329.361C792.028 328.736 793.132 328.423 794.332 328.423C795.248 328.423 796.012 328.58 796.623 328.892C797.241 329.197 797.738 329.581 798.114 330.043C798.498 330.497 798.789 330.945 798.988 331.385H799.126V323.182H803.654V345H799.18V342.379H798.988C798.775 342.834 798.473 343.285 798.082 343.732C797.699 344.173 797.198 344.538 796.58 344.83C795.969 345.121 795.224 345.266 794.343 345.266ZM795.781 341.655C796.513 341.655 797.131 341.456 797.635 341.058C798.146 340.653 798.537 340.089 798.807 339.364C799.084 338.64 799.222 337.791 799.222 336.818C799.222 335.845 799.087 335 798.817 334.283C798.547 333.565 798.157 333.011 797.645 332.621C797.134 332.23 796.513 332.035 795.781 332.035C795.035 332.035 794.407 332.237 793.895 332.642C793.384 333.047 792.997 333.608 792.734 334.325C792.471 335.043 792.34 335.874 792.34 336.818C792.34 337.77 792.471 338.612 792.734 339.343C793.004 340.067 793.391 340.636 793.895 341.048C794.407 341.452 795.035 341.655 795.781 341.655ZM814.843 345.32C813.159 345.32 811.711 344.979 810.496 344.297C809.289 343.608 808.358 342.635 807.705 341.378C807.051 340.114 806.725 338.619 806.725 336.893C806.725 335.21 807.051 333.732 807.705 332.461C808.358 331.19 809.278 330.199 810.464 329.489C811.657 328.778 813.056 328.423 814.662 328.423C815.741 328.423 816.746 328.597 817.676 328.945C818.614 329.286 819.431 329.801 820.127 330.49C820.83 331.179 821.377 332.045 821.767 333.089C822.158 334.126 822.353 335.341 822.353 336.733V337.979H808.536V335.167H818.081C818.081 334.513 817.939 333.935 817.655 333.43C817.371 332.926 816.977 332.532 816.473 332.248C815.975 331.957 815.397 331.811 814.736 331.811C814.047 331.811 813.436 331.971 812.904 332.29C812.378 332.603 811.966 333.026 811.668 333.558C811.37 334.084 811.217 334.67 811.21 335.316V337.99C811.21 338.8 811.359 339.499 811.657 340.089C811.963 340.678 812.392 341.133 812.946 341.452C813.5 341.772 814.157 341.932 814.917 341.932C815.422 341.932 815.883 341.861 816.302 341.719C816.721 341.577 817.08 341.364 817.378 341.08C817.676 340.795 817.904 340.447 818.06 340.036L822.257 340.312C822.044 341.321 821.608 342.202 820.947 342.955C820.294 343.7 819.449 344.283 818.412 344.702C817.382 345.114 816.192 345.32 814.843 345.32ZM827.968 345.277C827.265 345.277 826.661 345.028 826.157 344.531C825.659 344.027 825.411 343.423 825.411 342.72C825.411 342.024 825.659 341.428 826.157 340.93C826.661 340.433 827.265 340.185 827.968 340.185C828.65 340.185 829.246 340.433 829.757 340.93C830.269 341.428 830.525 342.024 830.525 342.72C830.525 343.189 830.404 343.619 830.162 344.009C829.928 344.393 829.619 344.702 829.235 344.936C828.852 345.163 828.429 345.277 827.968 345.277ZM834.251 328.636H838.789V345.81C838.789 347.074 838.54 348.097 838.043 348.878C837.546 349.659 836.832 350.231 835.902 350.593C834.979 350.955 833.874 351.136 832.589 351.136C832.432 351.136 832.283 351.133 832.141 351.126C831.992 351.126 831.836 351.122 831.672 351.115V347.567C831.793 347.575 831.9 347.578 831.992 347.578C832.077 347.585 832.17 347.589 832.269 347.589C833.001 347.589 833.512 347.433 833.803 347.12C834.101 346.815 834.251 346.353 834.251 345.735V328.636ZM836.509 326.527C835.841 326.527 835.266 326.303 834.783 325.856C834.3 325.401 834.059 324.858 834.059 324.226C834.059 323.601 834.3 323.065 834.783 322.617C835.266 322.163 835.841 321.935 836.509 321.935C837.191 321.935 837.77 322.163 838.246 322.617C838.729 323.065 838.97 323.601 838.97 324.226C838.97 324.858 838.729 325.401 838.246 325.856C837.77 326.303 837.191 326.527 836.509 326.527ZM856.039 333.303L851.885 333.558C851.814 333.203 851.661 332.884 851.426 332.599C851.192 332.308 850.883 332.077 850.5 331.907C850.123 331.729 849.672 331.641 849.147 331.641C848.444 331.641 847.85 331.79 847.368 332.088C846.885 332.379 846.643 332.77 846.643 333.26C846.643 333.651 846.799 333.981 847.112 334.251C847.424 334.521 847.961 334.737 848.721 334.901L851.682 335.497C853.273 335.824 854.459 336.349 855.24 337.074C856.022 337.798 856.412 338.75 856.412 339.929C856.412 341.001 856.096 341.942 855.464 342.752C854.839 343.562 853.98 344.194 852.886 344.648C851.799 345.096 850.546 345.32 849.125 345.32C846.959 345.32 845.233 344.869 843.948 343.967C842.669 343.058 841.92 341.822 841.7 340.259L846.164 340.025C846.299 340.685 846.625 341.19 847.144 341.538C847.662 341.879 848.326 342.049 849.136 342.049C849.931 342.049 850.571 341.896 851.054 341.591C851.544 341.278 851.792 340.877 851.799 340.387C851.792 339.975 851.618 339.638 851.277 339.375C850.936 339.105 850.411 338.899 849.701 338.757L846.867 338.192C845.269 337.873 844.079 337.319 843.298 336.531C842.524 335.742 842.137 334.737 842.137 333.516C842.137 332.464 842.421 331.559 842.989 330.799C843.564 330.039 844.37 329.453 845.407 329.041C846.451 328.629 847.673 328.423 849.072 328.423C851.139 328.423 852.765 328.86 853.951 329.734C855.145 330.607 855.841 331.797 856.039 333.303Z" fill="url(#paint0_linear_1_2)"/>
<defs>
<linearGradient id="paint0_linear_1_2" x1="367" y1="316" x2="858" y2="316" gradientUnits="userSpaceOnUse">
<stop stop-color="#00A3FF"/>
<stop offset="0.244792" stop-color="#0085FF"/>
<stop offset="0.520833" stop-color="#6A68EF"/>
<stop offset="0.786458" stop-color="#AE3DE3"/>
<stop offset="1" stop-color="#FF3CA5"/>
</linearGradient>
</defs>
</svg>
