<svg width="1200" height="600" viewBox="0 0 1200 600" fill="none" xmlns="http://www.w3.org/2000/svg">
<g clip-path="url(#clip0_1_3)">
<rect width="1200" height="600" rx="50" fill="white"/>
<g opacity="0.1" filter="url(#filter0_f_1_3)">
<circle cx="1255" cy="51" r="509" fill="#E30909"/>
</g>
<g opacity="0.1" filter="url(#filter1_f_1_3)">
<circle cx="156" cy="603" r="480" fill="#0B4FFF"/>
</g>
<path d="M111.484 268.508C109.57 268.508 107.871 268.189 106.387 267.551C104.915 266.9 103.75 265.923 102.891 264.621C102.044 263.306 101.621 261.659 101.621 259.68C101.621 258.013 101.914 256.607 102.5 255.461C103.086 254.315 103.893 253.384 104.922 252.668C105.951 251.952 107.135 251.411 108.477 251.047C109.818 250.669 111.25 250.415 112.773 250.285C114.479 250.129 115.853 249.966 116.895 249.797C117.936 249.615 118.691 249.361 119.16 249.035C119.642 248.697 119.883 248.221 119.883 247.609V247.512C119.883 246.509 119.538 245.734 118.848 245.187C118.158 244.641 117.227 244.367 116.055 244.367C114.792 244.367 113.776 244.641 113.008 245.187C112.24 245.734 111.751 246.49 111.543 247.453L102.734 247.141C102.995 245.318 103.665 243.69 104.746 242.258C105.84 240.813 107.337 239.68 109.238 238.859C111.152 238.026 113.451 237.609 116.133 237.609C118.047 237.609 119.811 237.837 121.426 238.293C123.04 238.736 124.447 239.387 125.645 240.246C126.842 241.092 127.767 242.134 128.418 243.371C129.082 244.608 129.414 246.021 129.414 247.609V268H120.43V263.82H120.195C119.661 264.836 118.978 265.695 118.145 266.398C117.324 267.102 116.354 267.629 115.234 267.98C114.128 268.332 112.878 268.508 111.484 268.508ZM114.434 262.258C115.462 262.258 116.387 262.049 117.207 261.633C118.04 261.216 118.704 260.643 119.199 259.914C119.694 259.172 119.941 258.312 119.941 257.336V254.484C119.668 254.628 119.336 254.758 118.945 254.875C118.568 254.992 118.151 255.103 117.695 255.207C117.24 255.311 116.771 255.402 116.289 255.48C115.807 255.559 115.345 255.63 114.902 255.695C114.004 255.839 113.236 256.06 112.598 256.359C111.973 256.659 111.491 257.049 111.152 257.531C110.827 258 110.664 258.56 110.664 259.211C110.664 260.201 111.016 260.956 111.719 261.477C112.435 261.997 113.34 262.258 114.434 262.258ZM103.027 335V295H112.578V310.137H112.773C113.164 309.225 113.717 308.346 114.434 307.5C115.163 306.654 116.087 305.964 117.207 305.43C118.34 304.883 119.694 304.609 121.27 304.609C123.353 304.609 125.299 305.156 127.109 306.25C128.932 307.344 130.404 309.03 131.523 311.309C132.643 313.587 133.203 316.491 133.203 320.02C133.203 323.418 132.663 326.263 131.582 328.555C130.514 330.846 129.069 332.565 127.246 333.711C125.436 334.857 123.424 335.43 121.211 335.43C119.701 335.43 118.392 335.182 117.285 334.687C116.178 334.193 115.247 333.542 114.492 332.734C113.75 331.927 113.177 331.061 112.773 330.137H112.48V335H103.027ZM112.383 320C112.383 321.615 112.598 323.021 113.027 324.219C113.47 325.417 114.102 326.348 114.922 327.012C115.755 327.663 116.751 327.988 117.91 327.988C119.082 327.988 120.078 327.663 120.898 327.012C121.719 326.348 122.337 325.417 122.754 324.219C123.184 323.021 123.398 321.615 123.398 320C123.398 318.385 123.184 316.986 122.754 315.801C122.337 314.616 121.719 313.698 120.898 313.047C120.091 312.396 119.095 312.07 117.91 312.07C116.738 312.07 115.742 312.389 114.922 313.027C114.102 313.665 113.47 314.577 113.027 315.762C112.598 316.947 112.383 318.359 112.383 320ZM146.665 335.508C144.751 335.508 143.052 335.189 141.567 334.551C140.096 333.9 138.931 332.923 138.071 331.621C137.225 330.306 136.802 328.659 136.802 326.68C136.802 325.013 137.095 323.607 137.681 322.461C138.267 321.315 139.074 320.384 140.103 319.668C141.131 318.952 142.316 318.411 143.657 318.047C144.998 317.669 146.431 317.415 147.954 317.285C149.66 317.129 151.034 316.966 152.075 316.797C153.117 316.615 153.872 316.361 154.341 316.035C154.823 315.697 155.063 315.221 155.063 314.609V314.512C155.063 313.509 154.718 312.734 154.028 312.187C153.338 311.641 152.407 311.367 151.235 311.367C149.972 311.367 148.957 311.641 148.188 312.187C147.42 312.734 146.932 313.49 146.724 314.453L137.915 314.141C138.175 312.318 138.846 310.69 139.927 309.258C141.021 307.813 142.518 306.68 144.419 305.859C146.333 305.026 148.631 304.609 151.313 304.609C153.228 304.609 154.992 304.837 156.606 305.293C158.221 305.736 159.627 306.387 160.825 307.246C162.023 308.092 162.948 309.134 163.599 310.371C164.263 311.608 164.595 313.021 164.595 314.609V335H155.61V330.82H155.376C154.842 331.836 154.159 332.695 153.325 333.398C152.505 334.102 151.535 334.629 150.415 334.98C149.308 335.332 148.058 335.508 146.665 335.508ZM149.614 329.258C150.643 329.258 151.567 329.049 152.388 328.633C153.221 328.216 153.885 327.643 154.38 326.914C154.875 326.172 155.122 325.312 155.122 324.336V321.484C154.849 321.628 154.517 321.758 154.126 321.875C153.748 321.992 153.332 322.103 152.876 322.207C152.42 322.311 151.951 322.402 151.47 322.48C150.988 322.559 150.526 322.63 150.083 322.695C149.185 322.839 148.416 323.06 147.778 323.359C147.153 323.659 146.672 324.049 146.333 324.531C146.007 325 145.845 325.56 145.845 326.211C145.845 327.201 146.196 327.956 146.899 328.477C147.616 328.997 148.521 329.258 149.614 329.258ZM184.438 335.566C181.274 335.566 178.56 334.915 176.294 333.613C174.041 332.311 172.31 330.501 171.099 328.184C169.888 325.853 169.282 323.158 169.282 320.098C169.282 317.025 169.888 314.329 171.099 312.012C172.323 309.681 174.061 307.865 176.313 306.562C178.579 305.26 181.281 304.609 184.419 304.609C187.192 304.609 189.608 305.111 191.665 306.113C193.735 307.116 195.35 308.535 196.509 310.371C197.681 312.194 198.299 314.336 198.364 316.797H189.438C189.256 315.26 188.735 314.056 187.876 313.184C187.03 312.311 185.923 311.875 184.556 311.875C183.449 311.875 182.479 312.187 181.646 312.812C180.812 313.424 180.161 314.336 179.692 315.547C179.237 316.745 179.009 318.229 179.009 320C179.009 321.771 179.237 323.268 179.692 324.492C180.161 325.703 180.812 326.621 181.646 327.246C182.479 327.858 183.449 328.164 184.556 328.164C185.441 328.164 186.222 327.975 186.899 327.598C187.59 327.22 188.156 326.667 188.599 325.937C189.041 325.195 189.321 324.297 189.438 323.242H198.364C198.273 325.716 197.655 327.878 196.509 329.727C195.376 331.576 193.781 333.014 191.724 334.043C189.679 335.059 187.251 335.566 184.438 335.566ZM211.865 327.129L211.904 315.742H213.232L221.67 305H232.49L219.951 320.391H217.432L211.865 327.129ZM203.252 335V295H212.803V335H203.252ZM221.885 335L214.033 322.539L220.322 315.762L232.92 335H221.885ZM248.696 335.566C245.558 335.566 242.85 334.948 240.571 333.711C238.306 332.461 236.561 330.684 235.337 328.379C234.126 326.061 233.521 323.307 233.521 320.117C233.521 317.018 234.132 314.31 235.356 311.992C236.58 309.661 238.306 307.852 240.532 306.562C242.759 305.26 245.382 304.609 248.403 304.609C250.539 304.609 252.492 304.941 254.263 305.605C256.034 306.27 257.563 307.253 258.853 308.555C260.142 309.857 261.144 311.465 261.86 313.379C262.576 315.28 262.935 317.461 262.935 319.922V322.305H236.86V316.758H254.048C254.035 315.742 253.794 314.837 253.325 314.043C252.856 313.249 252.212 312.63 251.392 312.187C250.584 311.732 249.653 311.504 248.599 311.504C247.531 311.504 246.574 311.745 245.728 312.227C244.881 312.695 244.211 313.34 243.716 314.16C243.221 314.967 242.961 315.885 242.935 316.914V322.559C242.935 323.783 243.175 324.857 243.657 325.781C244.139 326.693 244.823 327.402 245.708 327.91C246.593 328.418 247.648 328.672 248.872 328.672C249.718 328.672 250.487 328.555 251.177 328.32C251.867 328.086 252.459 327.741 252.954 327.285C253.449 326.829 253.82 326.27 254.067 325.605L262.837 325.859C262.472 327.826 261.672 329.538 260.435 330.996C259.211 332.441 257.603 333.568 255.61 334.375C253.618 335.169 251.313 335.566 248.696 335.566ZM277.363 317.891V335H267.813V305H276.895V310.508H277.227C277.891 308.672 279.023 307.233 280.625 306.191C282.227 305.137 284.134 304.609 286.348 304.609C288.457 304.609 290.286 305.085 291.836 306.035C293.398 306.973 294.609 308.288 295.469 309.98C296.341 311.66 296.771 313.626 296.758 315.879V335H287.207V317.754C287.22 316.087 286.797 314.785 285.938 313.848C285.091 312.91 283.913 312.441 282.402 312.441C281.4 312.441 280.514 312.663 279.746 313.105C278.991 313.535 278.405 314.154 277.988 314.961C277.585 315.768 277.376 316.745 277.363 317.891ZM313.628 335.43C311.414 335.43 309.403 334.857 307.593 333.711C305.783 332.565 304.338 330.846 303.257 328.555C302.176 326.263 301.636 323.418 301.636 320.02C301.636 316.491 302.196 313.587 303.315 311.309C304.435 309.03 305.9 307.344 307.71 306.25C309.533 305.156 311.493 304.609 313.589 304.609C315.164 304.609 316.512 304.883 317.632 305.43C318.752 305.964 319.676 306.654 320.405 307.5C321.134 308.346 321.688 309.225 322.065 310.137H322.261V295H331.812V335H322.358V330.137H322.065C321.662 331.061 321.089 331.927 320.347 332.734C319.604 333.542 318.674 334.193 317.554 334.687C316.447 335.182 315.138 335.43 313.628 335.43ZM316.948 327.988C318.107 327.988 319.097 327.663 319.917 327.012C320.737 326.348 321.369 325.417 321.812 324.219C322.254 323.021 322.476 321.615 322.476 320C322.476 318.359 322.254 316.947 321.812 315.762C321.382 314.577 320.75 313.665 319.917 313.027C319.097 312.389 318.107 312.07 316.948 312.07C315.763 312.07 314.761 312.396 313.94 313.047C313.12 313.698 312.495 314.616 312.065 315.801C311.649 316.986 311.44 318.385 311.44 320C311.44 321.615 311.655 323.021 312.085 324.219C312.515 325.417 313.133 326.348 313.94 327.012C314.761 327.663 315.763 327.988 316.948 327.988ZM366.719 305V312.031H347.422V305H366.719ZM351.445 335V303.477C351.445 301.159 351.882 299.238 352.754 297.715C353.626 296.178 354.837 295.033 356.387 294.277C357.936 293.509 359.727 293.125 361.758 293.125C363.086 293.125 364.336 293.229 365.508 293.438C366.693 293.633 367.572 293.809 368.145 293.965L366.621 300.957C366.27 300.84 365.84 300.742 365.332 300.664C364.837 300.586 364.368 300.547 363.926 300.547C362.806 300.547 362.038 300.794 361.621 301.289C361.204 301.784 360.996 302.461 360.996 303.32V335H351.445ZM371.313 335V305H380.591V310.469H380.903C381.45 308.49 382.342 307.018 383.579 306.055C384.816 305.078 386.255 304.59 387.896 304.59C388.338 304.59 388.794 304.622 389.263 304.687C389.731 304.74 390.168 304.824 390.571 304.941V313.242C390.116 313.086 389.517 312.962 388.774 312.871C388.045 312.78 387.394 312.734 386.821 312.734C385.688 312.734 384.666 312.988 383.755 313.496C382.856 313.991 382.147 314.687 381.626 315.586C381.118 316.471 380.864 317.513 380.864 318.711V335H371.313ZM401.792 335.508C399.878 335.508 398.179 335.189 396.694 334.551C395.223 333.9 394.058 332.923 393.198 331.621C392.352 330.306 391.929 328.659 391.929 326.68C391.929 325.013 392.222 323.607 392.808 322.461C393.394 321.315 394.201 320.384 395.229 319.668C396.258 318.952 397.443 318.411 398.784 318.047C400.125 317.669 401.558 317.415 403.081 317.285C404.787 317.129 406.16 316.966 407.202 316.797C408.244 316.615 408.999 316.361 409.468 316.035C409.95 315.697 410.19 315.221 410.19 314.609V314.512C410.19 313.509 409.845 312.734 409.155 312.187C408.465 311.641 407.534 311.367 406.362 311.367C405.099 311.367 404.084 311.641 403.315 312.187C402.547 312.734 402.059 313.49 401.851 314.453L393.042 314.141C393.302 312.318 393.973 310.69 395.054 309.258C396.147 307.813 397.645 306.68 399.546 305.859C401.46 305.026 403.758 304.609 406.44 304.609C408.354 304.609 410.119 304.837 411.733 305.293C413.348 305.736 414.754 306.387 415.952 307.246C417.15 308.092 418.075 309.134 418.726 310.371C419.39 311.608 419.722 313.021 419.722 314.609V335H410.737V330.82H410.503C409.969 331.836 409.285 332.695 408.452 333.398C407.632 334.102 406.662 334.629 405.542 334.98C404.435 335.332 403.185 335.508 401.792 335.508ZM404.741 329.258C405.77 329.258 406.694 329.049 407.515 328.633C408.348 328.216 409.012 327.643 409.507 326.914C410.002 326.172 410.249 325.312 410.249 324.336V321.484C409.976 321.628 409.644 321.758 409.253 321.875C408.875 321.992 408.459 322.103 408.003 322.207C407.547 322.311 407.078 322.402 406.597 322.48C406.115 322.559 405.653 322.63 405.21 322.695C404.312 322.839 403.543 323.06 402.905 323.359C402.28 323.659 401.799 324.049 401.46 324.531C401.134 325 400.972 325.56 400.972 326.211C400.972 327.201 401.323 327.956 402.026 328.477C402.743 328.997 403.647 329.258 404.741 329.258ZM425.562 335V305H434.644V310.508H434.976C435.601 308.685 436.655 307.246 438.14 306.191C439.624 305.137 441.395 304.609 443.452 304.609C445.535 304.609 447.319 305.143 448.804 306.211C450.288 307.279 451.232 308.711 451.636 310.508H451.948C452.508 308.724 453.602 307.298 455.229 306.23C456.857 305.15 458.778 304.609 460.991 304.609C463.83 304.609 466.134 305.521 467.905 307.344C469.676 309.154 470.562 311.641 470.562 314.805V335H461.011V316.992C461.011 315.495 460.627 314.355 459.858 313.574C459.09 312.78 458.094 312.383 456.87 312.383C455.555 312.383 454.52 312.812 453.765 313.672C453.022 314.518 452.651 315.658 452.651 317.09V335H443.472V316.895C443.472 315.501 443.094 314.401 442.339 313.594C441.584 312.786 440.588 312.383 439.351 312.383C438.517 312.383 437.782 312.585 437.144 312.988C436.506 313.379 436.004 313.939 435.64 314.668C435.288 315.397 435.112 316.257 435.112 317.246V335H425.562ZM490.503 335.566C487.365 335.566 484.657 334.948 482.378 333.711C480.112 332.461 478.368 330.684 477.144 328.379C475.933 326.061 475.327 323.307 475.327 320.117C475.327 317.018 475.939 314.31 477.163 311.992C478.387 309.661 480.112 307.852 482.339 306.562C484.565 305.26 487.189 304.609 490.21 304.609C492.345 304.609 494.299 304.941 496.069 305.605C497.84 306.27 499.37 307.253 500.659 308.555C501.948 309.857 502.951 311.465 503.667 313.379C504.383 315.28 504.741 317.461 504.741 319.922V322.305H478.667V316.758H495.854C495.841 315.742 495.601 314.837 495.132 314.043C494.663 313.249 494.019 312.63 493.198 312.187C492.391 311.732 491.46 311.504 490.405 311.504C489.338 311.504 488.381 311.745 487.534 312.227C486.688 312.695 486.017 313.34 485.522 314.16C485.028 314.967 484.767 315.885 484.741 316.914V322.559C484.741 323.783 484.982 324.857 485.464 325.781C485.946 326.693 486.629 327.402 487.515 327.91C488.4 328.418 489.455 328.672 490.679 328.672C491.525 328.672 492.293 328.555 492.983 328.32C493.674 328.086 494.266 327.741 494.761 327.285C495.256 326.829 495.627 326.27 495.874 325.605L504.644 325.859C504.279 327.826 503.478 329.538 502.241 330.996C501.017 332.441 499.409 333.568 497.417 334.375C495.425 335.169 493.12 335.566 490.503 335.566ZM514.902 335L507.09 305H516.68L520.723 324.219H520.977L525.313 305H534.668L539.121 324.082H539.375L543.301 305H552.891L545.059 335H534.844L530.156 317.52H529.824L525.137 335H514.902ZM570.083 335.566C566.932 335.566 564.224 334.922 561.958 333.633C559.705 332.331 557.967 330.521 556.743 328.203C555.532 325.872 554.927 323.171 554.927 320.098C554.927 317.012 555.532 314.31 556.743 311.992C557.967 309.661 559.705 307.852 561.958 306.562C564.224 305.26 566.932 304.609 570.083 304.609C573.234 304.609 575.936 305.26 578.188 306.562C580.454 307.852 582.192 309.661 583.403 311.992C584.627 314.31 585.239 317.012 585.239 320.098C585.239 323.171 584.627 325.872 583.403 328.203C582.192 330.521 580.454 332.331 578.188 333.633C575.936 334.922 573.234 335.566 570.083 335.566ZM570.142 328.359C571.287 328.359 572.257 328.008 573.052 327.305C573.846 326.602 574.451 325.625 574.868 324.375C575.298 323.125 575.513 321.68 575.513 320.039C575.513 318.372 575.298 316.914 574.868 315.664C574.451 314.414 573.846 313.437 573.052 312.734C572.257 312.031 571.287 311.68 570.142 311.68C568.957 311.68 567.954 312.031 567.134 312.734C566.326 313.437 565.708 314.414 565.278 315.664C564.862 316.914 564.653 318.372 564.653 320.039C564.653 321.68 564.862 323.125 565.278 324.375C565.708 325.625 566.326 326.602 567.134 327.305C567.954 328.008 568.957 328.359 570.142 328.359ZM590.132 335V305H599.409V310.469H599.722C600.269 308.49 601.16 307.018 602.397 306.055C603.634 305.078 605.073 304.59 606.714 304.59C607.157 304.59 607.612 304.622 608.081 304.687C608.55 304.74 608.986 304.824 609.39 304.941V313.242C608.934 313.086 608.335 312.962 607.593 312.871C606.864 312.78 606.213 312.734 605.64 312.734C604.507 312.734 603.485 312.988 602.573 313.496C601.675 313.991 600.965 314.687 600.444 315.586C599.937 316.471 599.683 317.513 599.683 318.711V335H590.132ZM621.895 327.129L621.934 315.742H623.262L631.699 305H642.52L629.98 320.391H627.461L621.895 327.129ZM613.281 335V295H622.832V335H613.281ZM631.914 335L624.063 322.539L630.352 315.762L642.949 335H631.914Z" fill="#1B1732" fill-opacity="0.79"/>
<path d="M181.113 228V268H172.91L156.992 244.914H156.738V268H147.07V228H155.391L171.133 251.047H171.465V228H181.113ZM201.216 268.566C198.078 268.566 195.369 267.948 193.091 266.711C190.825 265.461 189.08 263.684 187.856 261.379C186.646 259.061 186.04 256.307 186.04 253.117C186.04 250.018 186.652 247.31 187.876 244.992C189.1 242.661 190.825 240.852 193.052 239.562C195.278 238.26 197.902 237.609 200.923 237.609C203.058 237.609 205.011 237.941 206.782 238.605C208.553 239.27 210.083 240.253 211.372 241.555C212.661 242.857 213.664 244.465 214.38 246.379C215.096 248.28 215.454 250.461 215.454 252.922V255.305H189.38V249.758H206.567C206.554 248.742 206.313 247.837 205.845 247.043C205.376 246.249 204.731 245.63 203.911 245.187C203.104 244.732 202.173 244.504 201.118 244.504C200.05 244.504 199.093 244.745 198.247 245.227C197.401 245.695 196.73 246.34 196.235 247.16C195.741 247.967 195.48 248.885 195.454 249.914V255.559C195.454 256.783 195.695 257.857 196.177 258.781C196.659 259.693 197.342 260.402 198.228 260.91C199.113 261.418 200.168 261.672 201.392 261.672C202.238 261.672 203.006 261.555 203.696 261.32C204.386 261.086 204.979 260.741 205.474 260.285C205.968 259.829 206.34 259.27 206.587 258.605L215.356 258.859C214.992 260.826 214.191 262.538 212.954 263.996C211.73 265.441 210.122 266.568 208.13 267.375C206.138 268.169 203.833 268.566 201.216 268.566ZM228.027 238L232.969 247.883L238.086 238H247.715L239.336 253L248.027 268H238.477L232.969 258.039L227.598 268H217.91L226.621 253L218.34 238H228.027ZM269.009 238V245.031H250.083V238H269.009ZM254.048 230.812H263.599V258.566C263.599 259.152 263.69 259.628 263.872 259.992C264.067 260.344 264.347 260.598 264.712 260.754C265.076 260.897 265.513 260.969 266.021 260.969C266.385 260.969 266.769 260.936 267.173 260.871C267.59 260.793 267.902 260.728 268.11 260.676L269.556 267.57C269.1 267.701 268.455 267.863 267.622 268.059C266.802 268.254 265.819 268.378 264.673 268.43C262.433 268.534 260.513 268.273 258.911 267.648C257.323 267.01 256.105 266.021 255.259 264.68C254.425 263.339 254.022 261.652 254.048 259.621V230.812ZM292.275 248.137V255.5H273.76V248.137H292.275ZM325.269 241.066C325.047 240.246 324.722 239.523 324.292 238.898C323.862 238.26 323.335 237.72 322.71 237.277C322.085 236.835 321.369 236.503 320.562 236.281C319.754 236.047 318.869 235.93 317.905 235.93C315.965 235.93 314.285 236.398 312.866 237.336C311.46 238.273 310.373 239.641 309.604 241.437C308.836 243.221 308.452 245.389 308.452 247.941C308.452 250.507 308.823 252.694 309.565 254.504C310.308 256.314 311.382 257.694 312.788 258.645C314.194 259.595 315.9 260.07 317.905 260.07C319.676 260.07 321.174 259.784 322.397 259.211C323.634 258.625 324.572 257.798 325.21 256.73C325.848 255.663 326.167 254.406 326.167 252.961L327.964 253.176H318.237V246.125H335.483V251.418C335.483 254.999 334.722 258.065 333.198 260.617C331.688 263.169 329.604 265.129 326.948 266.496C324.305 267.863 321.265 268.547 317.827 268.547C314.012 268.547 310.659 267.72 307.769 266.066C304.878 264.413 302.625 262.056 301.011 258.996C299.396 255.923 298.589 252.277 298.589 248.059C298.589 244.777 299.077 241.867 300.054 239.328C301.03 236.776 302.391 234.615 304.136 232.844C305.894 231.073 307.925 229.732 310.229 228.82C312.547 227.909 315.041 227.453 317.71 227.453C320.028 227.453 322.183 227.785 324.175 228.449C326.18 229.113 327.951 230.051 329.487 231.262C331.037 232.473 332.293 233.911 333.257 235.578C334.22 237.245 334.819 239.074 335.054 241.066H325.269ZM355.205 268.566C352.067 268.566 349.359 267.948 347.08 266.711C344.814 265.461 343.07 263.684 341.846 261.379C340.635 259.061 340.029 256.307 340.029 253.117C340.029 250.018 340.641 247.31 341.865 244.992C343.089 242.661 344.814 240.852 347.041 239.562C349.268 238.26 351.891 237.609 354.912 237.609C357.048 237.609 359.001 237.941 360.771 238.605C362.542 239.27 364.072 240.253 365.361 241.555C366.65 242.857 367.653 244.465 368.369 246.379C369.085 248.28 369.443 250.461 369.443 252.922V255.305H343.369V249.758H360.557C360.544 248.742 360.303 247.837 359.834 247.043C359.365 246.249 358.721 245.63 357.9 245.187C357.093 244.732 356.162 244.504 355.107 244.504C354.04 244.504 353.083 244.745 352.236 245.227C351.39 245.695 350.719 246.34 350.225 247.16C349.73 247.967 349.469 248.885 349.443 249.914V255.559C349.443 256.783 349.684 257.857 350.166 258.781C350.648 259.693 351.331 260.402 352.217 260.91C353.102 261.418 354.157 261.672 355.381 261.672C356.227 261.672 356.995 261.555 357.686 261.32C358.376 261.086 358.968 260.741 359.463 260.285C359.958 259.829 360.329 259.27 360.576 258.605L369.346 258.859C368.981 260.826 368.18 262.538 366.943 263.996C365.719 265.441 364.111 266.568 362.119 267.375C360.127 268.169 357.822 268.566 355.205 268.566ZM383.872 250.891V268H374.321V238H383.403V243.508H383.735C384.399 241.672 385.532 240.233 387.134 239.191C388.735 238.137 390.643 237.609 392.856 237.609C394.966 237.609 396.795 238.085 398.345 239.035C399.907 239.973 401.118 241.288 401.978 242.98C402.85 244.66 403.28 246.626 403.267 248.879V268H393.716V250.754C393.729 249.087 393.306 247.785 392.446 246.848C391.6 245.91 390.422 245.441 388.911 245.441C387.909 245.441 387.023 245.663 386.255 246.105C385.5 246.535 384.914 247.154 384.497 247.961C384.093 248.768 383.885 249.745 383.872 250.891ZM423.203 268.566C420.065 268.566 417.357 267.948 415.078 266.711C412.813 265.461 411.068 263.684 409.844 261.379C408.633 259.061 408.027 256.307 408.027 253.117C408.027 250.018 408.639 247.31 409.863 244.992C411.087 242.661 412.812 240.852 415.039 239.562C417.266 238.26 419.889 237.609 422.91 237.609C425.046 237.609 426.999 237.941 428.77 238.605C430.54 239.27 432.07 240.253 433.359 241.555C434.648 242.857 435.651 244.465 436.367 246.379C437.083 248.28 437.441 250.461 437.441 252.922V255.305H411.367V249.758H428.555C428.542 248.742 428.301 247.837 427.832 247.043C427.363 246.249 426.719 245.63 425.898 245.187C425.091 244.732 424.16 244.504 423.105 244.504C422.038 244.504 421.081 244.745 420.234 245.227C419.388 245.695 418.717 246.34 418.223 247.16C417.728 247.967 417.467 248.885 417.441 249.914V255.559C417.441 256.783 417.682 257.857 418.164 258.781C418.646 259.693 419.329 260.402 420.215 260.91C421.1 261.418 422.155 261.672 423.379 261.672C424.225 261.672 424.993 261.555 425.684 261.32C426.374 261.086 426.966 260.741 427.461 260.285C427.956 259.829 428.327 259.27 428.574 258.605L437.344 258.859C436.979 260.826 436.178 262.538 434.941 263.996C433.717 265.441 432.109 266.568 430.117 267.375C428.125 268.169 425.82 268.566 423.203 268.566ZM442.319 268V238H451.597V243.469H451.909C452.456 241.49 453.348 240.018 454.585 239.055C455.822 238.078 457.261 237.59 458.901 237.59C459.344 237.59 459.8 237.622 460.269 237.687C460.737 237.74 461.174 237.824 461.577 237.941V246.242C461.121 246.086 460.522 245.962 459.78 245.871C459.051 245.78 458.4 245.734 457.827 245.734C456.694 245.734 455.672 245.988 454.761 246.496C453.862 246.991 453.153 247.687 452.632 248.586C452.124 249.471 451.87 250.513 451.87 251.711V268H442.319ZM472.798 268.508C470.884 268.508 469.185 268.189 467.7 267.551C466.229 266.9 465.063 265.923 464.204 264.621C463.358 263.306 462.935 261.659 462.935 259.68C462.935 258.013 463.228 256.607 463.813 255.461C464.399 254.315 465.207 253.384 466.235 252.668C467.264 251.952 468.449 251.411 469.79 251.047C471.131 250.669 472.563 250.415 474.087 250.285C475.793 250.129 477.166 249.966 478.208 249.797C479.25 249.615 480.005 249.361 480.474 249.035C480.955 248.697 481.196 248.221 481.196 247.609V247.512C481.196 246.509 480.851 245.734 480.161 245.187C479.471 244.641 478.54 244.367 477.368 244.367C476.105 244.367 475.09 244.641 474.321 245.187C473.553 245.734 473.065 246.49 472.856 247.453L464.048 247.141C464.308 245.318 464.979 243.69 466.06 242.258C467.153 240.813 468.651 239.68 470.552 238.859C472.466 238.026 474.764 237.609 477.446 237.609C479.36 237.609 481.125 237.837 482.739 238.293C484.354 238.736 485.76 239.387 486.958 240.246C488.156 241.092 489.08 242.134 489.731 243.371C490.396 244.608 490.728 246.021 490.728 247.609V268H481.743V263.82H481.509C480.975 264.836 480.291 265.695 479.458 266.398C478.638 267.102 477.668 267.629 476.548 267.98C475.441 268.332 474.191 268.508 472.798 268.508ZM475.747 262.258C476.776 262.258 477.7 262.049 478.521 261.633C479.354 261.216 480.018 260.643 480.513 259.914C481.007 259.172 481.255 258.312 481.255 257.336V254.484C480.981 254.628 480.649 254.758 480.259 254.875C479.881 254.992 479.465 255.103 479.009 255.207C478.553 255.311 478.084 255.402 477.603 255.48C477.121 255.559 476.659 255.63 476.216 255.695C475.317 255.839 474.549 256.06 473.911 256.359C473.286 256.659 472.804 257.049 472.466 257.531C472.14 258 471.978 258.56 471.978 259.211C471.978 260.201 472.329 260.956 473.032 261.477C473.748 261.997 474.653 262.258 475.747 262.258ZM513.501 238V245.031H494.575V238H513.501ZM498.54 230.812H508.091V258.566C508.091 259.152 508.182 259.628 508.364 259.992C508.56 260.344 508.84 260.598 509.204 260.754C509.569 260.897 510.005 260.969 510.513 260.969C510.877 260.969 511.261 260.936 511.665 260.871C512.082 260.793 512.394 260.728 512.603 260.676L514.048 267.57C513.592 267.701 512.948 267.863 512.114 268.059C511.294 268.254 510.311 268.378 509.165 268.43C506.925 268.534 505.005 268.273 503.403 267.648C501.815 267.01 500.597 266.021 499.751 264.68C498.918 263.339 498.514 261.652 498.54 259.621V230.812ZM518.374 268V238H527.925V268H518.374ZM523.159 234.504C521.818 234.504 520.666 234.061 519.702 233.176C518.739 232.277 518.257 231.197 518.257 229.934C518.257 228.684 518.739 227.616 519.702 226.73C520.666 225.832 521.818 225.383 523.159 225.383C524.513 225.383 525.666 225.832 526.616 226.73C527.58 227.616 528.062 228.684 528.062 229.934C528.062 231.197 527.58 232.277 526.616 233.176C525.666 234.061 524.513 234.504 523.159 234.504ZM548.008 268.566C544.857 268.566 542.148 267.922 539.883 266.633C537.63 265.331 535.892 263.521 534.668 261.203C533.457 258.872 532.852 256.171 532.852 253.098C532.852 250.012 533.457 247.31 534.668 244.992C535.892 242.661 537.63 240.852 539.883 239.562C542.148 238.26 544.857 237.609 548.008 237.609C551.159 237.609 553.861 238.26 556.113 239.562C558.379 240.852 560.117 242.661 561.328 244.992C562.552 247.31 563.164 250.012 563.164 253.098C563.164 256.171 562.552 258.872 561.328 261.203C560.117 263.521 558.379 265.331 556.113 266.633C553.861 267.922 551.159 268.566 548.008 268.566ZM548.066 261.359C549.212 261.359 550.182 261.008 550.977 260.305C551.771 259.602 552.376 258.625 552.793 257.375C553.223 256.125 553.438 254.68 553.438 253.039C553.438 251.372 553.223 249.914 552.793 248.664C552.376 247.414 551.771 246.437 550.977 245.734C550.182 245.031 549.212 244.68 548.066 244.68C546.882 244.68 545.879 245.031 545.059 245.734C544.251 246.437 543.633 247.414 543.203 248.664C542.786 249.914 542.578 251.372 542.578 253.039C542.578 254.68 542.786 256.125 543.203 257.375C543.633 258.625 544.251 259.602 545.059 260.305C545.879 261.008 546.882 261.359 548.066 261.359ZM577.607 250.891V268H568.057V238H577.139V243.508H577.471C578.135 241.672 579.268 240.233 580.869 239.191C582.471 238.137 584.378 237.609 586.592 237.609C588.701 237.609 590.531 238.085 592.08 239.035C593.643 239.973 594.854 241.288 595.713 242.98C596.585 244.66 597.015 246.626 597.002 248.879V268H587.451V250.754C587.464 249.087 587.041 247.785 586.182 246.848C585.335 245.91 584.157 245.441 582.646 245.441C581.644 245.441 580.758 245.663 579.99 246.105C579.235 246.535 578.649 247.154 578.232 247.961C577.829 248.768 577.62 249.745 577.607 250.891Z" fill="#19BA63"/>
<g opacity="0.1" filter="url(#filter2_f_1_3)">
<circle cx="99.5" cy="-59.5" r="327.5" fill="#328500"/>
</g>
</g>
<defs>
<filter id="filter0_f_1_3" x="496" y="-708" width="1518" height="1518" filterUnits="userSpaceOnUse" color-interpolation-filters="sRGB">
<feFlood flood-opacity="0" result="BackgroundImageFix"/>
<feBlend mode="normal" in="SourceGraphic" in2="BackgroundImageFix" result="shape"/>
<feGaussianBlur stdDeviation="125" result="effect1_foregroundBlur_1_3"/>
</filter>
<filter id="filter1_f_1_3" x="-474" y="-27" width="1260" height="1260" filterUnits="userSpaceOnUse" color-interpolation-filters="sRGB">
<feFlood flood-opacity="0" result="BackgroundImageFix"/>
<feBlend mode="normal" in="SourceGraphic" in2="BackgroundImageFix" result="shape"/>
<feGaussianBlur stdDeviation="75" result="effect1_foregroundBlur_1_3"/>
</filter>
<filter id="filter2_f_1_3" x="-378" y="-537" width="955" height="955" filterUnits="userSpaceOnUse" color-interpolation-filters="sRGB">
<feFlood flood-opacity="0" result="BackgroundImageFix"/>
<feBlend mode="normal" in="SourceGraphic" in2="BackgroundImageFix" result="shape"/>
<feGaussianBlur stdDeviation="75" result="effect1_foregroundBlur_1_3"/>
</filter>
<clipPath id="clip0_1_3">
<rect width="1200" height="600" rx="50" fill="white"/>
</clipPath>
</defs>
</svg>
